<svg xmlns="http://www.w3.org/2000/svg" viewBox="0 0 128 128" fill="none">
  <!-- Water droplet shape -->
  <path d="M64 8 C64 8 28 52 28 80 C28 99.88 44.12 116 64 116 C83.88 116 100 99.88 100 80 C100 52 64 8 64 8Z" fill="#3b82f6"/>
  <!-- Wrench overlay -->
  <path d="M52 62 L56 58 L68 70 L72 66 C74.5 63.5 78.5 63.5 81 66 C83.5 68.5 83.5 72.5 81 75 L77 79 L81 83 L75 89 L71 85 L67 89 C64.5 91.5 60.5 91.5 58 89 C55.5 86.5 55.5 82.5 58 80 L62 76 L52 66 L48 70 L42 64 L46 60 Z" fill="white" fill-rule="evenodd"/>
  <!-- Small highlight on droplet -->
  <ellipse cx="48" cy="68" rx="6" ry="10" fill="white" opacity="0.25" transform="rotate(-20 48 68)"/>
</svg>
